<?xml version="1.0" standalone="no"?>
<!DOCTYPE svg PUBLIC "-//W3C//DTD SVG 20010904//EN"
 "http://www.w3.org/TR/2001/REC-SVG-20010904/DTD/svg10.dtd">
<svg version="1.0" xmlns="http://www.w3.org/2000/svg"
 width="260.000000pt" height="260.000000pt" viewBox="0 0 260.000000 260.000000"
 preserveAspectRatio="xMidYMid meet">
<metadata>
Created by potrace 1.14, written by Peter Selinger 2001-2017
</metadata>
<g transform="translate(0.000000,260.000000) scale(0.100000,-0.100000)"
fill="#000000" stroke="none">
<path d="M225 2025 c-14 -13 -25 -36 -25 -50 0 -14 11 -37 25 -50 l24 -25 451
0 451 0 24 25 c32 31 32 69 0 100 l-24 25 -451 0 -451 0 -24 -25z"/>
<path d="M1375 2025 c-14 -13 -25 -36 -25 -50 0 -14 11 -37 25 -50 l24 -25
451 0 451 0 24 25 c32 31 32 69 0 100 l-24 25 -451 0 -451 0 -24 -25z"/>
<path d="M1802 1447 c-290 -290 -322 -325 -322 -355 0 -42 30 -72 72 -72 29 0
64 32 350 318 304 303 318 319 318 355 0 45 -28 77 -68 77 -22 0 -82 -55 -350
-323z"/>
<path d="M655 1725 l-25 -24 0 -451 0 -451 25 -24 c31 -32 69 -32 100 0 l25
24 0 451 0 451 -25 24 c-13 14 -36 25 -50 25 -14 0 -37 -11 -50 -25z"/>
<path d="M1375 875 c-14 -13 -25 -36 -25 -50 0 -14 11 -37 25 -50 l24 -25 451
0 451 0 24 25 c32 31 32 69 0 100 l-24 25 -451 0 -451 0 -24 -25z"/>
</g>
</svg>
